# xmcd
#
# Track frame offsets:
#	150
#	13043
#	24173
#	35319
#	47765
#	59812
#	69579
#	81359
#	91144
#	101260
#	113356
#	125694
#	136298
#	148880
#	163128
#	175794
#	186899
#	203098
#	217320
#	229707
#
# Disc length: 3208 seconds
#
# Revision: 1
# Processed by: cddbd v1.5.2PL0 Copyright (c) Steve Scherf et al.
# Submitted via: EasyCDDAExtractor 10.0.5.1
#
DISCID=1a0c8614
DTITLE=Various Artist - Country Greats - Disc 9
DYEAR=1900
DGENRE=Country
TTITLE0=Charlie Rich - The Most Beautiful Girl
TTITLE1=Conway Twitty - It's Only Make Believe
TTITLE2=Don Gibson - Oh, Lonesome Me
TTITLE3=Kenny Rogers - Elvira
TTITLE4=Bob Wills and His Texas Playboys - Time Changes Everything
TTITLE5=Hank Locklin - Geisha Girl
TTITLE6=Connie Smith - Once A Day
TTITLE7=Claude King - The Comancheros
TTITLE8=Waylon Jennings - When Sin Stops (Love Begins)
TTITLE9=Stonewall Jackson - A Wound Time Can't Erase
TTITLE10=Roy Rogers - Headin' For Texas And Home
TTITLE11=Patsy Cline - Honky Tonk Merry-Go-Round
TTITLE12=Willie Nelson - Any Old Arms Won't Do
TTITLE13=Merle Haggard - I'm A Lonesome Fugitive
TTITLE14=Carl Perkins - Boppin' The Blues
TTITLE15=Lee Conway - Maybelline
TTITLE16=Ben Colder - Don't Go Near The Eskimos
TTITLE17=Margo Smith - It Only Hurts For A Little While
TTITLE18=Roy Acuff - Wreck On The Highway
TTITLE19=Roy Rogers - My Chickashay Gal
EXTD=
EXTT0=
EXTT1=
EXTT2=
EXTT3=
EXTT4=
EXTT5=
EXTT6=
EXTT7=
EXTT8=
EXTT9=
EXTT10=
EXTT11=
EXTT12=
EXTT13=
EXTT14=
EXTT15=
EXTT16=
EXTT17=
EXTT18=
EXTT19=
PLAYORDER=
